<svg width="15" height="15" viewBox="0 0 15 15" fill="none" xmlns="http://www.w3.org/2000/svg">
<path d="M13.8333 1.00001C13.5239 1.00001 13.2272 1.12293 13.0084 1.34172C12.7896 1.56051 12.6667 1.85726 12.6667 2.16668V11.0217L2.99501 1.33835C2.77533 1.11866 2.47737 0.995239 2.16668 0.995239C1.85599 0.995239 1.55803 1.11866 1.33835 1.33835C1.11866 1.55803 0.995239 1.85599 0.995239 2.16668C0.995239 2.47737 1.11866 2.77533 1.33835 2.99501L11.0217 12.6667H2.16668C1.85726 12.6667 1.56051 12.7896 1.34172 13.0084C1.12293 13.2272 1.00001 13.5239 1.00001 13.8333C1.00001 14.1428 1.12293 14.4395 1.34172 14.6583C1.56051 14.8771 1.85726 15 2.16668 15H13.8333C13.9858 14.9982 14.1364 14.9665 14.2767 14.9067C14.5618 14.7883 14.7883 14.5618 14.9067 14.2767C14.9665 14.1364 14.9982 13.9858 15 13.8333V2.16668C15 1.85726 14.8771 1.56051 14.6583 1.34172C14.4395 1.12293 14.1428 1.00001 13.8333 1.00001Z" fill="white"/>
</svg>
