<svg width="657" height="600" viewBox="0 0 657 600" fill="none" xmlns="http://www.w3.org/2000/svg">
<g opacity="0.5">
<g opacity="0.2443">
<path opacity="0.2443" d="M272.883 430.598L228.234 373.736L213.657 427.84L272.883 430.598ZM228.759 376.362L270.387 429.416L215.102 426.789L228.759 376.362Z" fill="#E1194C"/>
</g>
<g opacity="0.5038">
<path opacity="0.5038" d="M130.138 510.834L38.608 520.552L39.396 521.34L106.763 595.404L130.138 510.834ZM40.9718 521.471L128.562 512.147L106.106 593.172L40.9718 521.471Z" fill="#E1194C"/>
</g>
<g opacity="0.8777">
<path opacity="0.8777" d="M107.551 594.879L39.6586 520.026L0.262695 599.869H48.5884L107.551 594.879ZM39.9213 522.127L105.187 593.959L48.4571 598.818H2.10117L39.9213 522.127Z" fill="#E1194C"/>
</g>
<g opacity="0.5761">
<path opacity="0.5761" d="M234.274 164.806L233.749 163.756L196.192 182.534L192.909 192.383L234.274 164.806ZM197.111 183.322L226.001 168.877L195.01 189.626L197.111 183.322Z" fill="#E1194C"/>
</g>
<g opacity="0.1811">
<path opacity="0.1811" d="M183.585 131.845L176.1 64.478L131.188 100.854L183.585 131.845ZM175.312 66.7105L182.272 129.613L133.29 100.722L175.312 66.7105Z" fill="#E1194C"/>
</g>
<g opacity="0.6975">
<path opacity="0.6975" d="M546.29 402.495L545.765 401.839L505.581 358.897L512.016 415.89L546.29 402.495ZM507.026 362.311L544.32 402.101L512.935 414.445L507.026 362.311Z" fill="#E1194C"/>
</g>
<g opacity="0.054651">
<path opacity="0.054651" d="M215.233 427.708L204.465 405.515L203.94 405.778L111.359 450.295L215.233 427.708ZM203.94 407.091L213.526 426.921L120.814 447.012L203.94 407.091Z" fill="#E1194C"/>
</g>
<g opacity="0.341">
<path opacity="0.341" d="M123.441 273.539L47.1438 315.167L98.4898 321.865L98.6212 321.471L123.441 273.539ZM50.8208 314.511L120.683 276.297L97.8332 320.683L50.8208 314.511Z" fill="#E1194C"/>
</g>
<g opacity="0.4395">
<path opacity="0.4395" d="M49.7702 315.299L22.8497 256.73L10.5056 327.774L49.7702 315.299ZM23.375 260.538L48.1944 314.511L12.0815 326.067L23.375 260.538Z" fill="#E1194C"/>
</g>
<g opacity="0.8687">
<path opacity="0.8687" d="M133.027 101.248L115.561 47.2751L114.905 47.6691L16.1523 118.188L133.027 101.248ZM115.036 49.1136L131.582 100.328L20.7485 116.349L115.036 49.1136Z" fill="#E1194C"/>
</g>
<g opacity="0.6378">
<path opacity="0.6378" d="M548.523 400.394L511.228 415.102L522.39 421.799L548.523 400.394ZM513.723 415.233L541.957 404.202L522.128 420.355L513.723 415.233Z" fill="#E1194C"/>
</g>
<g opacity="0.6534">
<path opacity="0.6534" d="M551.018 557.19L528.956 461.983L499.541 569.928L551.018 557.19ZM528.825 466.71L549.573 556.402L501.248 568.483L528.825 466.71Z" fill="#E1194C"/>
</g>
<g opacity="0.4075">
<path opacity="0.4075" d="M526.33 444.517L522.784 420.617L511.097 413.657L526.33 444.517ZM521.734 421.405L524.097 437.426L513.854 416.678L521.734 421.405Z" fill="#E1194C"/>
</g>
<g opacity="0.1929">
<path opacity="0.1929" d="M403.152 385.292L342.351 309.915L322.915 390.939L403.152 385.292ZM343.007 312.41L400.919 384.373L324.491 389.757L343.007 312.41Z" fill="#E1194C"/>
</g>
<g opacity="0.1666">
<path opacity="0.1666" d="M426.133 587.262L387.131 599.869H420.88L426.133 587.262ZM394.485 598.687L424.163 589.101L420.223 598.687H394.485Z" fill="#E1194C"/>
</g>
<g opacity="0.3403">
<path opacity="0.3403" d="M23.7689 258.963L19.1727 180.302L0 217.334V269.205L23.7689 258.963ZM18.2535 184.636L22.587 258.306L1.18188 267.498V217.466L18.2535 184.636Z" fill="#E1194C"/>
</g>
<g opacity="0.9176">
<path opacity="0.9176" d="M197.767 181.353L160.998 209.586L161.655 210.506L194.484 191.464L197.767 181.353ZM168.877 204.99L195.535 184.504L193.565 190.545L168.877 204.99Z" fill="#E1194C"/>
</g>
<g opacity="0.1984">
<path opacity="0.1984" d="M162.574 209.192L108.864 220.617L121.865 276.559L162.574 209.192ZM110.177 221.536L160.21 210.9L122.259 273.539L110.177 221.536Z" fill="#E1194C"/>
</g>
<g opacity="0.2669">
<path opacity="0.2669" d="M123.966 275.903L61.1951 219.829L22.0618 259.094L123.966 275.903ZM61.1951 221.405L120.158 274.064L24.2942 258.306L61.1951 221.405Z" fill="#E1194C"/>
</g>
<g opacity="0.7806">
<path opacity="0.7806" d="M117.925 447.8L32.3046 462.114L39.3958 522.259L40.1838 521.471L117.925 447.8ZM33.4864 463.034L114.379 449.508L40.3151 519.895L33.4864 463.034Z" fill="#E1194C"/>
</g>
<g opacity="0.9353">
<path opacity="0.9353" d="M34.6684 462.508L0 452.134V475.772L34.6684 462.508ZM1.18188 453.71L31.1228 462.64L1.18188 474.064V453.71Z" fill="#E1194C"/>
</g>
<g opacity="0.4956">
<path opacity="0.4956" d="M550.886 561.917L550.493 469.206L528.037 463.559L550.886 561.917ZM549.442 470.125L549.705 551.674L529.613 465.135L549.442 470.125Z" fill="#E1194C"/>
</g>
<g opacity="0.6271">
<path opacity="0.6271" d="M291.399 139.987L233.093 164.018L264.741 207.091L291.399 139.987ZM234.931 164.544L289.429 142.088L264.478 204.727L234.931 164.544Z" fill="#E1194C"/>
</g>
<g opacity="0.7557">
<path opacity="0.7557" d="M266.316 205.778L193.434 190.414L194.091 241.628L266.316 205.778ZM194.616 191.727L262.771 206.172L195.141 239.658L194.616 191.727Z" fill="#E1194C"/>
</g>
<g opacity="0.3556">
<path opacity="0.3556" d="M205.647 406.303L98.0958 355.614L115.693 449.508L205.647 406.303ZM99.6717 357.584L203.02 406.303L116.481 447.8L99.6717 357.584Z" fill="#E1194C"/>
</g>
<g opacity="0.058722">
<path opacity="0.058722" d="M211.688 302.429L97.5707 320.946L98.3586 357.584L211.688 302.429ZM98.7525 321.865L204.202 304.793L99.5405 355.745L98.7525 321.865Z" fill="#E1194C"/>
</g>
<g opacity="0.5999">
<path opacity="0.5999" d="M325.148 390.545L272.226 357.321L295.864 396.98L325.148 390.545ZM275.64 360.867L322.127 390.02L296.257 395.666L275.64 360.867Z" fill="#E1194C"/>
</g>
<g opacity="0.7881">
<path opacity="0.7881" d="M324.491 391.464L311.622 330.926L272.883 359.028L324.491 391.464ZM310.834 332.896L322.784 389.1L274.852 359.028L310.834 332.896Z" fill="#E1194C"/>
</g>
<g opacity="0.397">
<path opacity="0.397" d="M299.146 400.394L274.327 358.503L257.781 357.452L299.146 400.394ZM273.67 359.685L293.106 392.515L260.67 358.897L273.67 359.685Z" fill="#E1194C"/>
</g>
<g opacity="0.1352">
<path opacity="0.1352" d="M297.571 294.419L258.175 358.766L274.327 359.685L297.571 294.419ZM260.144 357.715L292.843 304.399L273.539 358.503L260.144 357.715Z" fill="#E1194C"/>
</g>
<g opacity="0.302">
<path opacity="0.302" d="M457.781 599.869L456.861 594.091L448.982 599.869H457.781ZM456.074 596.192L456.468 598.687H452.528L456.074 596.192Z" fill="#E1194C"/>
</g>
<g opacity="0.5835">
<path opacity="0.5835" d="M656.599 514.511L597.242 499.015L619.435 537.361L656.599 514.511ZM599.606 500.854L653.71 514.905L619.698 535.785L599.606 500.854Z" fill="#E1194C"/>
</g>
<g opacity="0.7245">
<path opacity="0.7245" d="M513.198 416.152L506.763 359.422L470.65 394.222L513.198 416.152ZM505.844 361.917L511.753 414.183L472.489 393.959L505.844 361.917Z" fill="#E1194C"/>
</g>
<g opacity="0.6437">
<path opacity="0.6437" d="M508.339 359.553L476.297 368.483L470.65 395.798L508.339 359.553ZM477.216 369.402L504.268 361.917L472.489 392.515L477.216 369.402Z" fill="#E1194C"/>
</g>
<g opacity="0.593">
<path opacity="0.593" d="M222.85 599.869L219.961 584.898L196.98 599.869H222.85ZM219.173 586.868L221.405 598.687H200.788L219.173 586.868Z" fill="#E1194C"/>
</g>
<g opacity="0.4081">
<path opacity="0.4081" d="M426.001 589.888L404.465 479.317L367.039 530.926L367.433 531.32L426.001 589.888ZM403.808 482.075L424.163 586.343L368.483 530.663L403.808 482.075Z" fill="#E1194C"/>
</g>
<g opacity="0.9412">
<path opacity="0.9412" d="M307.157 527.38L238.345 503.349L266.054 593.04L307.157 527.38ZM240.184 505.187L305.45 528.037L266.448 590.282L240.184 505.187Z" fill="#E1194C"/>
</g>
<g opacity="0.2546">
<path opacity="0.2546" d="M184.11 130.663L131.976 99.9343L103.743 179.251L184.11 130.663ZM132.502 101.641L181.747 130.663L105.712 176.625L132.502 101.641Z" fill="#E1194C"/>
</g>
<g opacity="0.5939">
<path opacity="0.5939" d="M110.177 221.93L105.187 176.756L71.9633 208.798L110.177 221.93ZM104.268 179.251L108.733 220.223L74.0644 208.273L104.268 179.251Z" fill="#E1194C"/>
</g>
<g opacity="0.7674">
<path opacity="0.7674" d="M21.0112 18.91L0 0V13.2633L21.0112 18.91ZM1.18188 2.6264L16.6776 16.5463L1.18188 12.4754V2.6264Z" fill="#E1194C"/>
</g>
<g opacity="0.2255">
<path opacity="0.2255" d="M529.481 465.003L525.673 440.053L490.479 457.912L529.481 465.003ZM524.754 441.891L528.037 463.69L493.894 457.518L524.754 441.891Z" fill="#E1194C"/>
</g>
<g opacity="0.1251">
<path opacity="0.1251" d="M526.067 441.234L512.541 413.789L491.136 458.963L526.067 441.234ZM512.541 416.546L524.491 440.709L493.5 456.336L512.541 416.546Z" fill="#E1194C"/>
</g>
<g opacity="0.2913">
<path opacity="0.2913" d="M513.198 414.97L470.519 393.04L492.055 459.357L513.198 414.97ZM472.489 395.272L511.622 415.496L492.318 456.205L472.489 395.272Z" fill="#E1194C"/>
</g>
<g opacity="0.7893">
<path opacity="0.7893" d="M495.863 457.387L391.858 450.296L403.808 481.418L495.863 457.387ZM393.565 451.477L488.641 458.043L404.465 479.974L393.565 451.477Z" fill="#E1194C"/>
</g>
<g opacity="0.7612">
<path opacity="0.7612" d="M611.95 544.846L610.768 544.714L598.818 600H605.647L611.95 544.846ZM600.263 598.687L609.455 556.008L604.596 598.687H600.263Z" fill="#E1194C"/>
</g>
<g opacity="0.3186">
<path opacity="0.3186" d="M505.975 599.869L500.854 568.221L454.892 595.404L479.842 599.737L505.975 599.869ZM499.934 570.059L504.53 598.687H479.842L458.043 594.879L499.934 570.059Z" fill="#E1194C"/>
</g>
<g opacity="0.769">
<path opacity="0.769" d="M599.081 500.985L595.535 443.336L548.917 469.468L599.081 500.985ZM594.353 445.305L597.636 498.884L551.018 469.731L594.353 445.305Z" fill="#E1194C"/>
</g>
<g opacity="0.7914">
<path opacity="0.7914" d="M595.272 443.992L546.815 399.081L544.452 402.364L594.485 444.78L595.272 443.992ZM547.078 400.788L575.049 426.658L546.159 402.101L547.078 400.788Z" fill="#E1194C"/>
</g>
<g opacity="0.7235">
<path opacity="0.7235" d="M490.611 358.109L468.024 337.492L476.297 369.928L490.611 358.109ZM470.125 341.037L488.772 358.109L476.953 367.958L470.125 341.037Z" fill="#E1194C"/>
</g>
<g opacity="0.1424">
<path opacity="0.1424" d="M157.321 561.786L105.45 594.222L112.804 599.737H127.774L157.321 561.786ZM107.42 594.353L152.331 566.251L126.986 598.687H113.066L107.42 594.353Z" fill="#E1194C"/>
</g>
<g opacity="0.3504">
<path opacity="0.3504" d="M235.325 164.544L181.615 129.219L201.445 174.918L235.325 164.544ZM184.242 132.239L232.699 164.15L202.233 173.474L184.242 132.239Z" fill="#E1194C"/>
</g>
<g opacity="0.5955">
<path opacity="0.5955" d="M202.495 174.13L183.585 130.401L182.535 130.794L196.586 184.373L202.495 174.13ZM185.424 137.886L201.182 174.13L196.848 181.484L185.424 137.886Z" fill="#E1194C"/>
</g>
<g opacity="0.8014">
<path opacity="0.8014" d="M99.5404 359.554L98.7525 320.158L86.9337 330.794L99.5404 359.554ZM97.5706 322.653L98.2272 353.775L88.2469 331.057L97.5706 322.653Z" fill="#E1194C"/>
</g>
<g opacity="0.38">
<path opacity="0.38" d="M99.4091 320.945L44.6488 313.723L87.5904 331.451L99.4091 320.945ZM53.3159 316.087L96.9141 321.865L87.5904 330.269L53.3159 316.087Z" fill="#E1194C"/>
</g>
<g opacity="0.9285">
<path opacity="0.9285" d="M326.724 389.1L293.368 396.454L310.309 399.869L326.724 389.1ZM298.884 396.323L320.683 391.464L309.915 398.424L298.884 396.323Z" fill="#E1194C"/>
</g>
<g opacity="0.9356">
<path opacity="0.9356" d="M393.04 450.427L323.703 389.626L308.995 399.212L392.383 451.346L393.04 450.427ZM323.703 391.07L386.999 446.619L311.096 399.212L323.703 391.07Z" fill="#E1194C"/>
</g>
</g>
</svg>
