<svg width="166" height="40" viewBox="0 0 166 40" fill="none" xmlns="http://www.w3.org/2000/svg">
<path fill-rule="evenodd" clip-rule="evenodd" d="M7.05068 37.61C7.05068 37.7358 7.05068 37.7358 6.92698 37.7358C6.92698 37.7358 6.80328 37.7358 6.55589 37.7358C6.4322 37.7358 6.4322 37.7358 6.3085 37.7358H6.1848C6.1848 37.7358 6.1848 37.7358 6.06111 37.7358C6.06111 37.7358 6.06111 37.7358 6.06111 37.61L5.69002 34.5912C5.69002 34.4654 5.69002 34.3396 5.69002 34.2138C5.69002 34.088 5.69002 33.9622 5.69002 33.8365C5.69002 33.7107 5.69002 33.5849 5.69002 33.4591C5.69002 33.3333 5.69002 33.2075 5.69002 33.0817V32.956C5.69002 33.0817 5.56632 33.2075 5.56632 33.3333C5.56632 33.4591 5.44263 33.5849 5.44263 33.7107C5.44263 33.8365 5.31893 33.9622 5.31893 34.088C5.31893 34.2138 5.19524 34.3396 5.19524 34.4654L4.08197 37.61V37.7358C4.08197 37.7358 4.08197 37.7358 3.95828 37.8616H3.83458C3.83458 37.8616 3.71089 37.8616 3.58719 37.8616C3.46349 37.8616 3.46349 37.8616 3.3398 37.8616H3.2161C3.2161 37.8616 3.09241 37.8616 3.09241 37.7358V37.61L2.10284 34.4654C2.10284 34.3396 1.97914 34.2138 1.97914 34.088C1.97914 33.9622 1.85545 33.8365 1.85545 33.7107C1.85545 33.5849 1.73175 33.4591 1.73175 33.3333C1.73175 33.2075 1.60805 33.0817 1.60805 32.956V33.0817C1.60805 33.2075 1.60805 33.3333 1.60805 33.4591C1.60805 33.5849 1.60805 33.7107 1.60805 33.8365C1.60805 33.9622 1.60805 34.088 1.60805 34.2138C1.60805 34.3396 1.60805 34.4654 1.60805 34.5912L1.23697 37.61V37.7358C1.23697 37.7358 1.23697 37.7358 1.11327 37.8616H0.989574C0.865878 37.8616 0.865878 37.8616 0.742182 37.8616C0.618486 37.8616 0.618486 37.8616 0.49479 37.8616H0.371094C0.371094 37.8616 0.371094 37.8616 0.371094 37.7358V37.61L0.742182 32.7044C0.742182 32.5786 0.865878 32.4528 0.865878 32.4528C0.989574 32.327 0.989574 32.327 1.11327 32.327H1.60805C1.73175 32.327 1.85545 32.327 1.85545 32.327C1.97914 32.327 1.97914 32.327 2.10284 32.4528L2.22653 32.5786C2.22653 32.7044 2.35023 32.7044 2.35023 32.8302L3.09241 35.0943C3.09241 35.2201 3.2161 35.3459 3.2161 35.4717C3.2161 35.5975 3.3398 35.7232 3.3398 35.849C3.3398 35.9748 3.46349 36.1006 3.46349 36.2264C3.46349 36.3522 3.58719 36.478 3.58719 36.6037C3.58719 36.478 3.71089 36.3522 3.71089 36.2264C3.71089 36.1006 3.83458 35.9748 3.83458 35.849C3.83458 35.7232 3.95828 35.5975 3.95828 35.4717C3.95828 35.3459 4.08197 35.2201 4.08197 35.0943L4.82415 32.8302C4.82415 32.7044 4.94784 32.7044 4.94784 32.5786C4.94784 32.4528 5.07154 32.4528 5.07154 32.4528C5.07154 32.4528 5.19524 32.327 5.31893 32.327C5.44263 32.327 5.44263 32.327 5.56632 32.327H6.06111C6.1848 32.327 6.3085 32.327 6.4322 32.4528C6.55589 32.4528 6.55589 32.5786 6.55589 32.7044L7.05068 37.61ZM12.3696 37.7358C12.2459 37.8616 12.2459 37.8616 12.2459 37.8616C12.2459 37.8616 12.1222 37.8616 11.9985 37.8616C11.8748 37.8616 11.8748 37.8616 11.7511 37.8616H11.6274C11.6274 37.8616 11.6274 37.8616 11.6274 37.7358V37.2327C11.38 37.4843 11.1326 37.61 10.8853 37.8616C10.6379 37.9874 10.2668 38.1132 10.0194 38.1132C9.77199 38.1132 9.5246 38.1132 9.2772 37.9874C9.02981 37.8616 8.90612 37.8616 8.65872 37.7358C8.53503 37.61 8.41133 37.4843 8.28764 37.2327C8.16394 36.9811 8.16394 36.8553 8.16394 36.6037C8.16394 36.3522 8.16394 36.1006 8.28764 35.849C8.41133 35.5975 8.53503 35.4717 8.78242 35.3459C9.02981 35.2201 9.2772 35.0943 9.64829 34.9685C10.0194 34.8427 10.3905 34.8427 10.7616 34.8427H11.5037V34.4654C11.5037 34.2138 11.5037 34.088 11.38 33.9622C11.38 33.8365 11.2563 33.7107 11.1326 33.5849C11.0089 33.4591 10.8853 33.4591 10.7616 33.3333C10.6379 33.3333 10.3905 33.2075 10.2668 33.2075C10.0194 33.2075 9.77199 33.2075 9.64829 33.3333C9.4009 33.3333 9.2772 33.4591 9.15351 33.5849C9.02981 33.7107 8.90612 33.7107 8.78242 33.8365C8.65872 33.8365 8.65872 33.9622 8.53503 33.9622C8.53503 33.9622 8.53503 33.9622 8.41133 33.9622C8.41133 33.9622 8.41133 33.9622 8.41133 33.8365V33.7107V33.5849C8.41133 33.4591 8.41133 33.4591 8.41133 33.3333C8.41133 33.3333 8.41133 33.2075 8.53503 33.2075C8.53503 33.2075 8.65872 33.0817 8.78242 33.0817C8.90612 32.9559 9.02981 32.956 9.2772 32.8302C9.4009 32.8302 9.64829 32.7044 9.77199 32.7044C10.0194 32.7044 10.1431 32.7044 10.3905 32.7044C10.7616 32.7044 11.1326 32.7044 11.38 32.8302C11.6274 32.956 11.8748 33.0817 11.9985 33.2075C12.1222 33.3333 12.2459 33.5849 12.3696 33.8365C12.4933 34.088 12.4933 34.3396 12.4933 34.717V37.7358H12.3696ZM11.38 35.2201H10.6379C10.3905 35.2201 10.1431 35.2201 10.0194 35.3459C9.77199 35.3459 9.64829 35.4717 9.5246 35.5975C9.4009 35.7232 9.2772 35.849 9.2772 35.9748C9.2772 36.1006 9.15351 36.2264 9.15351 36.3522C9.15351 36.6037 9.2772 36.8553 9.4009 36.9811C9.5246 37.1069 9.77199 37.2327 10.1431 37.2327C10.3905 37.2327 10.6379 37.1069 10.8853 36.9811C11.1326 36.8553 11.38 36.6037 11.5037 36.3522V35.2201H11.38ZM17.1937 32.7044C17.1937 32.8302 17.1937 32.8302 17.1937 32.956V33.0817C17.1937 33.0817 17.1937 33.0817 17.1937 33.2075C17.1937 33.2075 17.1937 33.2075 17.0701 33.2075H15.0909V37.7358C15.0909 37.7358 15.0909 37.7358 15.0909 37.8616C15.0909 37.8616 15.0909 37.8616 14.9672 37.8616H14.8435C14.8435 37.8616 14.7198 37.8616 14.5961 37.8616C14.4724 37.8616 14.4724 37.8616 14.3487 37.8616C14.225 37.8616 14.225 37.8616 14.225 37.8616H14.1013C14.1013 37.8616 14.1013 37.8616 14.1013 37.7358V32.7044C14.1013 32.5786 14.1013 32.4528 14.225 32.4528C14.225 32.4528 14.3487 32.327 14.4724 32.327H17.0701C17.0701 32.327 17.0701 32.327 17.1937 32.327C17.1937 32.327 17.1937 32.327 17.1937 32.4528V32.5786C17.1937 32.5786 17.1937 32.5786 17.1937 32.7044ZM22.0179 37.7358C21.8942 37.8616 21.8942 37.8616 21.8942 37.8616C21.8942 37.8616 21.7705 37.8616 21.6468 37.8616C21.5231 37.8616 21.5231 37.8616 21.3994 37.8616C21.2757 37.8616 21.2757 37.8616 21.2757 37.8616C21.2757 37.8616 21.2757 37.8616 21.2757 37.7358V37.2327C21.0283 37.4843 20.7809 37.61 20.5335 37.8616C20.2861 37.9874 19.9151 38.1132 19.6677 38.1132C19.4203 38.1132 19.1729 38.1132 18.9255 37.9874C18.6781 37.8616 18.5544 37.8616 18.307 37.7358C18.1833 37.61 18.0596 37.4843 17.9359 37.2327C17.8122 36.9811 17.8122 36.8553 17.8122 36.6037C17.8122 36.3522 17.8122 36.1006 17.9359 35.849C18.0596 35.5975 18.1833 35.4717 18.4307 35.3459C18.6781 35.2201 18.9255 35.0943 19.2966 34.9685C19.6677 34.8427 20.0388 34.8427 20.4098 34.8427H21.0283V34.4654C21.0283 34.2138 21.0283 34.088 20.9046 33.9622C20.9046 33.8365 20.7809 33.7107 20.6572 33.5849C20.5335 33.4591 20.4098 33.4591 20.2861 33.3333C20.1625 33.3333 19.9151 33.2075 19.7914 33.2075C19.544 33.2075 19.2966 33.2075 19.1729 33.3333C18.9255 33.3333 18.8018 33.4591 18.6781 33.5849C18.5544 33.7107 18.4307 33.7107 18.307 33.8365C18.1833 33.8365 18.1833 33.9622 18.0596 33.9622C18.0596 33.9622 18.0596 33.9622 17.9359 33.9622C17.9359 33.9622 17.9359 33.9622 17.9359 33.8365V33.7107V33.5849C17.9359 33.4591 17.9359 33.4591 17.9359 33.3333C17.9359 33.3333 17.9359 33.2075 18.0596 33.2075C18.0596 33.2075 18.1833 33.0817 18.307 33.0817C18.4307 32.9559 18.5544 32.956 18.8018 32.8302C18.9255 32.8302 19.1729 32.7044 19.2966 32.7044C19.544 32.7044 19.6677 32.7044 19.9151 32.7044C20.2861 32.7044 20.6572 32.7044 20.9046 32.8302C21.152 32.956 21.3994 33.0817 21.5231 33.2075C21.6468 33.3333 21.7705 33.5849 21.8942 33.8365C22.0179 34.088 22.0179 34.3396 22.0179 34.717V37.7358ZM21.0283 35.2201H20.1624C19.9151 35.2201 19.6677 35.2201 19.544 35.3459C19.2966 35.3459 19.1729 35.4717 19.0492 35.5975C18.9255 35.7232 18.8018 35.849 18.8018 35.9748C18.8018 36.1006 18.6781 36.2264 18.6781 36.3522C18.6781 36.6037 18.8018 36.8553 18.9255 36.9811C19.0492 37.1069 19.2966 37.2327 19.6677 37.2327C19.9151 37.2327 20.1625 37.1069 20.4098 36.9811C20.6572 36.8553 20.9046 36.6037 21.0283 36.3522V35.2201ZM27.3368 36.2264C27.3368 36.478 27.3368 36.7295 27.2131 36.9811C27.0894 37.2327 26.9657 37.3585 26.7183 37.4843C26.4709 37.61 26.3472 37.7358 25.9762 37.8616C25.7288 37.9874 25.3577 37.9874 24.9866 37.9874C24.7392 37.9874 24.6155 37.9874 24.3681 37.9874C24.2444 37.9874 23.997 37.8616 23.8733 37.8616C23.7496 37.8616 23.6259 37.7358 23.5022 37.7358C23.3785 37.7358 23.3785 37.61 23.2549 37.61L23.1312 37.4843C23.1312 37.4843 23.1312 37.4843 23.1312 37.3585V37.2327V37.1069V36.9811V36.8553C23.1312 36.8553 23.1312 36.8553 23.2549 36.8553C23.2549 36.8553 23.3785 36.8553 23.3785 36.9811C23.5022 36.9811 23.5022 37.1069 23.6259 37.1069C23.7496 37.2327 23.8733 37.2327 24.1207 37.2327C24.2444 37.2327 24.4918 37.3585 24.8629 37.3585C25.1103 37.3585 25.234 37.3585 25.3577 37.3585C25.4814 37.3585 25.6051 37.2327 25.7288 37.2327C25.8525 37.1069 25.9762 37.1069 25.9762 36.9811C25.9762 36.8553 26.0999 36.7295 26.0999 36.6037C26.0999 36.478 26.0999 36.3522 25.9762 36.2264C25.9762 36.1006 25.8525 35.9748 25.7288 35.9748C25.6051 35.849 25.4814 35.849 25.234 35.849C24.9866 35.849 24.8629 35.7232 24.4918 35.7232H23.8733H23.7496C23.7496 35.7232 23.7496 35.7232 23.7496 35.5975V35.4717V35.3459C23.7496 35.2201 23.7496 35.2201 23.7496 35.2201V35.0943C23.7496 35.0943 23.7496 35.0943 23.8733 35.0943H24.7392C24.9866 35.0943 25.234 35.0943 25.3577 35.0943C25.4814 35.0943 25.7288 34.9685 25.8525 34.9685C25.9762 34.8427 26.0999 34.8427 26.0999 34.717C26.0999 34.5912 26.2236 34.4654 26.2236 34.3396C26.2236 34.2138 26.2236 34.088 26.0999 33.9622C26.0999 33.8365 25.9762 33.8365 25.8525 33.7107C25.7288 33.5849 25.6051 33.5849 25.4814 33.5849C25.3577 33.5849 25.234 33.5849 25.1103 33.5849C24.8629 33.5849 24.6155 33.5849 24.4918 33.7107C24.3681 33.7107 24.1207 33.8365 23.997 33.8365C23.8733 33.9622 23.7496 33.9622 23.6259 33.9622C23.5022 33.9622 23.5022 34.088 23.5022 34.088C23.5022 34.088 23.5022 34.088 23.5022 33.9622V33.8365C23.5022 33.7107 23.5022 33.5849 23.5022 33.5849C23.5022 33.4591 23.5022 33.4591 23.6259 33.4591C23.6259 33.4591 23.7496 33.3333 23.8733 33.3333C23.997 33.3333 24.1207 33.2075 24.2444 33.2075C24.3681 33.2075 24.6155 33.0817 24.7392 33.0817C24.8629 33.0817 25.1103 33.0817 25.3577 33.0817C25.6051 33.0817 25.8525 33.0817 26.0999 33.2075C26.3473 33.2075 26.4709 33.3333 26.7183 33.4591C26.842 33.5849 26.9657 33.7107 27.0894 33.9622C27.2131 34.088 27.2131 34.3396 27.2131 34.5912C27.2131 34.717 27.2131 34.8427 27.0894 34.9685C27.0894 35.0943 26.9657 35.2201 26.842 35.3459C26.7183 35.4717 26.5946 35.5975 26.4709 35.5975C26.3472 35.7232 26.2236 35.7232 26.0999 35.849C26.2236 35.849 26.3472 35.849 26.5946 35.9748C26.7183 36.1006 26.842 36.1006 26.9657 36.2264C27.0894 36.3522 27.2131 36.478 27.2131 36.6037C27.2131 35.849 27.3368 35.9748 27.3368 36.2264ZM33.2742 37.7358C33.2742 37.8616 33.1505 37.8616 33.1505 37.8616H33.0268C33.0268 37.8616 32.9031 37.8616 32.7794 37.8616C32.6557 37.8616 32.6557 37.8616 32.532 37.8616H32.4084H32.2847C32.2847 37.8616 32.2847 37.8616 32.2847 37.7358V34.717C32.2847 34.5912 32.2847 34.4654 32.2847 34.2138C32.2847 34.088 32.2847 33.9622 32.2847 33.7107C32.161 33.8365 32.0373 33.9622 32.0373 34.2138C31.9136 34.3396 31.7899 34.4654 31.6662 34.717L29.5633 37.7358C29.5633 37.7358 29.5633 37.7358 29.4396 37.8616C29.4396 37.8616 29.4397 37.8616 29.316 37.8616H29.1923H29.0686C28.9449 37.8616 28.9449 37.8616 28.8212 37.8616H28.6975C28.6975 37.8616 28.6975 37.8616 28.5738 37.8616C28.5738 37.8616 28.5738 37.8616 28.5738 37.7358V32.4528C28.5738 32.4528 28.5738 32.4528 28.5738 32.327C28.5738 32.327 28.5738 32.327 28.6975 32.327H28.8212C28.8212 32.327 28.9449 32.327 29.0686 32.327C29.1923 32.327 29.4396 32.327 29.4396 32.327C29.5633 32.327 29.5633 32.4528 29.5633 32.4528V35.4717C29.5633 35.5975 29.5633 35.7232 29.5633 35.9748C29.5633 36.1006 29.5633 36.2264 29.5633 36.478C29.687 36.3522 29.687 36.2264 29.8107 36.1006C29.9344 35.9748 30.0581 35.849 30.0581 35.7232L32.2847 32.5786C32.2847 32.5786 32.2847 32.5786 32.4084 32.4528C32.5321 32.327 32.4084 32.4528 32.532 32.4528H32.6557C32.6557 32.4528 32.7794 32.4528 32.9031 32.4528C33.0268 32.4528 33.0268 32.4528 33.1505 32.4528H33.2742C33.2742 32.4528 33.2742 32.4528 33.3979 32.4528C33.3979 32.4528 33.3979 32.4528 33.3979 32.5786V37.7358H33.2742ZM39.5827 37.7358C39.5827 37.8616 39.459 37.8616 39.459 37.8616H39.3353C39.3353 37.8616 39.2116 37.8616 39.0879 37.8616C38.9642 37.8616 38.9642 37.8616 38.8405 37.8616C38.7169 37.8616 38.7168 37.8616 38.7168 37.8616C38.7168 37.8616 38.7169 37.8616 38.5932 37.8616C38.5932 37.8616 38.5932 37.8616 38.5932 37.7358V35.4717H35.9955V37.7358C35.9955 37.7358 35.9955 37.7358 35.9955 37.8616C35.9955 37.8616 35.9955 37.8616 35.8718 37.8616H35.7481C35.7481 37.8616 35.6245 37.8616 35.5008 37.8616C35.3771 37.8616 35.3771 37.8616 35.2534 37.8616C35.1297 37.8616 35.1297 37.8616 35.1297 37.8616H35.006C35.006 37.8616 35.006 37.8616 35.006 37.7358V32.4528C35.006 32.4528 35.006 32.4528 35.006 32.327C35.006 32.327 35.006 32.327 35.1297 32.327H35.2534C35.2534 32.327 35.3771 32.327 35.5008 32.327C35.6245 32.327 35.6245 32.327 35.7481 32.327C35.8718 32.327 35.8718 32.327 35.8718 32.327C35.8718 32.327 35.8718 32.327 35.9955 32.327C35.9955 32.327 35.9955 32.327 35.9955 32.4528V34.5912H38.5932V32.4528C38.5932 32.4528 38.5932 32.4528 38.5932 32.327C38.5932 32.327 38.5932 32.327 38.7168 32.327H38.8405C38.8405 32.327 38.9642 32.327 39.0879 32.327C39.2116 32.327 39.2116 32.327 39.3353 32.327C39.459 32.327 39.459 32.327 39.459 32.327C39.459 32.327 39.459 32.327 39.5827 32.327C39.5827 32.327 39.5827 32.327 39.5827 32.4528V37.7358ZM48.6125 37.7358C48.6125 37.7358 48.4888 37.7358 48.6125 37.7358C48.6125 37.8616 48.4888 37.8616 48.4888 37.8616H48.3651C48.3651 37.8616 48.2414 37.8616 48.1177 37.8616C47.994 37.8616 47.994 37.8616 47.8704 37.8616H47.7467H47.623C47.623 37.8616 47.623 37.8616 47.623 37.7358V34.717C47.623 34.5912 47.623 34.4654 47.623 34.2138C47.623 34.088 47.623 33.9622 47.623 33.7107C47.4993 33.8365 47.3756 33.9622 47.3756 34.2138C47.2519 34.3396 47.1282 34.4654 47.0045 34.717L44.9016 37.7358C44.9016 37.7358 44.9016 37.7358 44.778 37.8616C44.778 37.8616 44.778 37.8616 44.6543 37.8616H44.5306H44.4069C44.2832 37.8616 44.2832 37.8616 44.1595 37.8616H44.0358C44.0358 37.8616 44.0358 37.8616 43.9121 37.8616C43.9121 37.8616 43.9121 37.8616 43.9121 37.7358V32.4528C43.9121 32.4528 43.9121 32.4528 43.9121 32.327C43.9121 32.327 43.9121 32.327 44.0358 32.327H44.1595C44.1595 32.327 44.2832 32.327 44.4069 32.327C44.5306 32.327 44.778 32.327 44.778 32.327C44.9016 32.327 44.9016 32.4528 44.9016 32.4528V35.4717C44.9016 35.5975 44.9016 35.7232 44.9016 35.9748C44.9016 36.1006 44.9016 36.2264 44.9016 36.478C45.0253 36.3522 45.0253 36.2264 45.149 36.1006C45.2727 35.9748 45.3964 35.849 45.3964 35.7232L47.623 32.5786C47.623 32.5786 47.623 32.5786 47.7467 32.4528C47.7467 32.4528 47.7467 32.4528 47.8704 32.4528H47.994C47.994 32.4528 48.1177 32.4528 48.2414 32.4528C48.3651 32.4528 48.3651 32.4528 48.4888 32.4528H48.6125C48.6125 32.4528 48.6125 32.4528 48.7362 32.4528C48.7362 32.4528 48.7362 32.4528 48.7362 32.5786V37.7358H48.6125ZM54.7973 37.7358C54.7973 37.8616 54.6736 37.8616 54.6736 37.8616H54.5499C54.5499 37.8616 54.4262 37.8616 54.3025 37.8616C54.1788 37.8616 54.1788 37.8616 54.0552 37.8616C53.9315 37.8616 53.9315 37.8616 53.9315 37.8616C53.9315 37.8616 53.9315 37.8616 53.8078 37.8616C53.8078 37.8616 53.8078 37.8616 53.8078 37.7358V35.4717H51.2101V37.7358C51.2101 37.7358 51.2101 37.7358 51.2101 37.8616C51.2101 37.8616 51.2101 37.8616 51.0864 37.8616H50.9628C50.9628 37.8616 50.8391 37.8616 50.7154 37.8616C50.5917 37.8616 50.5917 37.8616 50.468 37.8616C50.3443 37.8616 50.3443 37.8616 50.3443 37.8616H50.2206C50.2206 37.8616 50.2206 37.8616 50.2206 37.7358V32.4528C50.2206 32.4528 50.2206 32.4528 50.2206 32.327C50.2206 32.327 50.2206 32.327 50.3443 32.327H50.468C50.468 32.327 50.5917 32.327 50.7154 32.327C50.8391 32.327 50.8391 32.327 50.9628 32.327C51.0864 32.327 51.0864 32.327 51.0864 32.327C51.0864 32.327 51.0864 32.327 51.2101 32.327C51.2101 32.327 51.2101 32.327 51.2101 32.4528V34.5912H53.8078V32.4528C53.8078 32.4528 53.8078 32.4528 53.8078 32.327C53.8078 32.327 53.8078 32.327 53.9315 32.327H54.0552C54.0552 32.327 54.1788 32.327 54.3025 32.327C54.4262 32.327 54.4262 32.327 54.5499 32.327C54.6736 32.327 54.6736 32.327 54.6736 32.327C54.6736 32.327 54.6736 32.327 54.7973 32.327C54.7973 32.327 54.7973 32.327 54.7973 32.4528V37.7358ZM61.1058 37.7358C61.1058 37.8616 60.9821 37.8616 60.9821 37.8616H60.8584C60.8584 37.8616 60.7347 37.8616 60.611 37.8616C60.4873 37.8616 60.4873 37.8616 60.3636 37.8616C60.2399 37.8616 60.24 37.8616 60.24 37.8616C60.24 37.8616 60.2399 37.8616 60.1163 37.8616C60.1163 37.8616 60.1163 37.8616 60.1163 37.7358V35.4717H57.5186V37.7358C57.5186 37.7358 57.5186 37.7358 57.5186 37.8616C57.5186 37.8616 57.5186 37.8616 57.3949 37.8616H57.2712C57.2712 37.8616 57.1475 37.8616 57.0239 37.8616C56.9002 37.8616 56.9002 37.8616 56.7765 37.8616C56.6528 37.8616 56.6528 37.8616 56.6528 37.8616H56.5291C56.5291 37.8616 56.5291 37.8616 56.5291 37.7358V32.4528C56.5291 32.4528 56.5291 32.4528 56.5291 32.327C56.5291 32.327 56.5291 32.327 56.6528 32.327H56.7765C56.7765 32.327 56.9002 32.327 57.0239 32.327C57.1475 32.327 57.1475 32.327 57.2712 32.327C57.3949 32.327 57.3949 32.327 57.3949 32.327C57.3949 32.327 57.3949 32.327 57.5186 32.327C57.5186 32.327 57.5186 32.327 57.5186 32.4528V34.5912H60.1163V32.4528C60.1163 32.4528 60.1163 32.4528 60.1163 32.327C60.1163 32.327 60.1163 32.327 60.24 32.327H60.3636C60.3636 32.327 60.4873 32.327 60.611 32.327C60.7347 32.327 60.7347 32.327 60.8584 32.327C60.9821 32.327 60.9821 32.327 60.9821 32.327C60.9821 32.327 60.9821 32.327 61.1058 32.327C61.1058 32.327 61.1058 32.327 61.1058 32.4528V37.7358ZM67.6617 34.9685C67.6617 35.3459 67.6617 35.849 67.538 36.1006C67.4143 36.478 67.2906 36.7295 67.0432 36.9811C66.7958 37.2327 66.5484 37.4843 66.1774 37.61C65.8063 37.7358 65.4352 37.8616 65.0641 37.8616C64.693 37.8616 64.3219 37.7358 63.9508 37.61C63.5797 37.4843 63.3323 37.2327 63.2087 37.1069C62.9613 36.8553 62.8376 36.6037 62.7139 36.2264C62.5902 35.849 62.5902 35.4717 62.5902 35.0943C62.5902 34.717 62.5902 34.2138 62.7139 33.9622C62.8376 33.5849 62.9613 33.3333 63.2087 33.0817C63.456 32.8302 63.7034 32.5786 64.0745 32.4528C64.4456 32.327 64.8167 32.2012 65.1878 32.2012C65.5589 32.2012 65.93 32.327 66.301 32.4528C66.6721 32.5786 66.9195 32.8302 67.0432 32.956C67.2906 33.2075 67.4143 33.4591 67.538 33.8365C67.6617 34.2138 67.6617 34.5912 67.6617 34.9685ZM66.6721 35.0943C66.6721 34.8427 66.6721 34.5912 66.5484 34.3396C66.5484 34.088 66.4247 33.8365 66.301 33.7107C66.1774 33.4591 66.0537 33.3333 65.8063 33.2075C65.5589 33.0817 65.3115 33.0817 65.0641 33.0817C64.8167 33.0817 64.5693 33.0817 64.3219 33.2075C64.0745 33.3333 63.9508 33.4591 63.8271 33.5849C63.7034 33.7107 63.5797 33.9622 63.5797 34.2138C63.456 34.4654 63.456 34.717 63.456 35.0943C63.456 35.3459 63.456 35.5975 63.5797 35.849C63.5797 36.1006 63.7034 36.3522 63.8271 36.478C63.9508 36.6037 64.0745 36.8553 64.3219 36.9811C64.5693 37.1069 64.8167 37.1069 65.0641 37.1069C65.3115 37.1069 65.5589 37.1069 65.8063 36.9811C66.0537 36.8553 66.1774 36.7295 66.301 36.6037C66.4247 36.478 66.5484 36.2264 66.5484 35.9748C66.6721 35.5975 66.6721 35.3459 66.6721 35.0943ZM73.3517 36.1006C73.3517 36.3522 73.3517 36.6037 73.228 36.8553C73.1043 37.1069 72.9806 37.2327 72.7332 37.3585C72.4858 37.4843 72.2385 37.61 71.9911 37.7358C71.7437 37.8616 71.3726 37.8616 70.8778 37.8616C70.7541 37.8616 70.6304 37.8616 70.5067 37.8616C70.383 37.8616 70.2593 37.8616 70.1356 37.8616C70.0119 37.8616 69.8882 37.8616 69.7645 37.8616C69.6408 37.8616 69.5171 37.8616 69.3934 37.8616C69.2698 37.8616 69.1461 37.7358 69.0224 37.7358C68.8987 37.61 68.8987 37.4843 68.8987 37.3585V32.8302C68.8987 32.7044 68.8987 32.5786 69.0224 32.4528C69.1461 32.327 69.1461 32.327 69.3934 32.327C69.5171 32.327 69.6408 32.327 69.7645 32.327C69.8882 32.327 70.0119 32.327 70.1356 32.327C70.2593 32.327 70.383 32.327 70.5067 32.327C70.6304 32.327 70.7541 32.327 70.8778 32.327C71.2489 32.327 71.62 32.327 71.8674 32.4528C72.1148 32.4528 72.3622 32.5786 72.4858 32.7044C72.6095 32.8302 72.8569 32.9559 72.8569 33.2075C72.9806 33.3333 72.9806 33.5849 72.9806 33.8365C72.9806 34.088 72.8569 34.3396 72.7332 34.5912C72.6096 34.8427 72.3622 34.9685 71.9911 35.0943C72.3622 35.2201 72.6096 35.3459 72.8569 35.5975C73.228 35.4717 73.3517 35.849 73.3517 36.1006ZM72.1148 33.7107C72.1148 33.5849 72.1148 33.4591 71.9911 33.3333C71.9911 33.2075 71.8674 33.2075 71.7437 33.0817C71.62 32.9559 71.4963 32.956 71.3726 32.956C71.2489 32.956 71.0015 32.956 70.7541 32.956C70.6304 32.956 70.383 32.956 70.2593 32.956C70.1356 32.956 70.0119 32.956 69.8882 32.956V34.5912H70.8778C71.2489 34.5912 71.62 34.4654 71.7437 34.3396C72.1148 34.2138 72.1148 33.9622 72.1148 33.7107ZM72.3622 36.2264C72.3622 36.1006 72.3622 35.9748 72.2385 35.849C72.2385 35.7232 72.1148 35.5975 71.9911 35.5975C71.8674 35.4717 71.7437 35.4717 71.4963 35.4717C71.3726 35.4717 71.1252 35.4717 70.8778 35.4717H70.0119V37.3585C70.1356 37.3585 70.1356 37.3585 70.2593 37.3585C70.383 37.3585 70.383 37.3585 70.5067 37.3585C70.6304 37.3585 70.6304 37.3585 70.7541 37.3585C70.8778 37.3585 70.8778 37.3585 71.0015 37.3585C71.2489 37.3585 71.4963 37.3585 71.62 37.2327C71.7437 37.2327 71.9911 37.1069 72.1148 36.9811C72.2385 36.8553 72.3622 36.7295 72.3622 36.7295C72.3622 36.478 72.3622 36.3522 72.3622 36.2264Z" fill="#7ECFF4"/>
<path fill-rule="evenodd" clip-rule="evenodd" d="M78.5469 37.7358C78.4232 37.8616 78.4232 37.8616 78.4232 37.8616C78.4232 37.8616 78.2995 37.8616 78.1758 37.8616C78.0521 37.8616 78.0521 37.8616 77.9284 37.8616H77.8047C77.8047 37.8616 77.8047 37.8616 77.8047 37.7358V37.2327C77.5573 37.4843 77.3099 37.61 77.0625 37.8616C76.8151 37.9874 76.444 38.1132 76.1966 38.1132C75.9492 38.1132 75.7018 38.1132 75.4545 37.9874C75.2071 37.8616 75.0834 37.8616 74.836 37.7358C74.7123 37.61 74.5886 37.4843 74.4649 37.2327C74.3412 36.9811 74.3412 36.8553 74.3412 36.6037C74.3412 36.3522 74.3412 36.1006 74.4649 35.849C74.5886 35.5975 74.7123 35.4717 74.9597 35.3459C75.2071 35.2201 75.4545 35.0943 75.8255 34.9685C76.1966 34.8427 76.5677 34.8427 76.9388 34.8427H77.681V34.4654C77.681 34.2138 77.681 34.088 77.5573 33.9622C77.5573 33.8365 77.4336 33.7107 77.3099 33.5849C77.1862 33.4591 77.0625 33.4591 76.9388 33.3333C76.8151 33.3333 76.5677 33.2075 76.444 33.2075C76.1966 33.2075 75.9492 33.2075 75.8255 33.3333C75.5781 33.3333 75.4545 33.4591 75.3308 33.5849C75.2071 33.7107 75.0834 33.7107 74.9597 33.8365C74.836 33.8365 74.836 33.9622 74.7123 33.9622C74.7123 33.9622 74.7123 33.9622 74.5886 33.9622C74.5886 33.9622 74.5886 33.9622 74.5886 33.8365V33.7107V33.5849C74.5886 33.4591 74.5886 33.4591 74.5886 33.3333C74.5886 33.3333 74.5886 33.2075 74.7123 33.2075C74.7123 33.2075 74.836 33.0817 74.9597 33.0817C75.0834 32.9559 75.2071 32.9559 75.4545 32.8302C75.5781 32.8302 75.8255 32.7044 75.9492 32.7044C76.1966 32.7044 76.3203 32.7044 76.5677 32.7044C76.9388 32.7044 77.3099 32.7044 77.5573 32.8302C77.8047 32.9559 78.0521 33.0817 78.1758 33.2075C78.2995 33.3333 78.4232 33.5849 78.5469 33.8365C78.6705 34.088 78.6705 34.3396 78.6705 34.717V37.7358H78.5469ZM77.681 35.2201H76.8151C76.5677 35.2201 76.3203 35.2201 76.1966 35.3459C75.9492 35.3459 75.8255 35.4717 75.7018 35.5975C75.5781 35.7232 75.4545 35.849 75.4545 35.9748C75.4545 36.1006 75.3308 36.2264 75.3308 36.3522C75.3308 36.6037 75.4545 36.8553 75.5781 36.9811C75.7018 37.1069 75.9492 37.2327 76.3203 37.2327C76.5677 37.2327 76.8151 37.1069 77.0625 36.9811C77.3099 36.8553 77.5573 36.6037 77.681 36.3522V35.2201ZM85.5975 39.6226C85.4738 39.7484 85.3501 39.7484 85.2264 39.7484C85.1027 39.7484 84.979 39.7484 84.979 39.7484C84.8553 39.7484 84.8553 39.7484 84.8553 39.6226V37.8616H80.6497C80.526 37.8616 80.526 37.8616 80.4023 37.7358C80.4023 37.7358 80.2786 37.61 80.2786 37.4843V32.4528C80.2786 32.4528 80.2786 32.4528 80.2786 32.327C80.2786 32.327 80.2786 32.327 80.4023 32.327H80.526C80.526 32.327 80.6497 32.327 80.7734 32.327C80.8971 32.327 80.8971 32.327 81.0208 32.327C81.1445 32.327 81.1445 32.327 81.1445 32.327C81.1445 32.327 81.1445 32.327 81.2682 32.327C81.2682 32.327 81.2682 32.327 81.2682 32.4528V36.9811H83.7421V32.4528C83.7421 32.4528 83.7421 32.4528 83.7421 32.327C83.7421 32.327 83.7421 32.327 83.8658 32.327H83.9895C83.9895 32.327 84.1132 32.327 84.2369 32.327C84.3606 32.327 84.3606 32.327 84.4843 32.327H84.608C84.608 32.327 84.608 32.327 84.7317 32.327C84.7317 32.327 84.7317 32.327 84.7317 32.4528V36.9811H85.4738C85.5975 36.9811 85.5975 36.9811 85.5975 36.9811V37.1069V39.6226ZM91.2875 37.7358C91.2875 37.8616 91.1638 37.8616 91.1638 37.8616H91.0401C91.0401 37.8616 90.9165 37.8616 90.7928 37.8616C90.6691 37.8616 90.6691 37.8616 90.5454 37.8616H90.4217H90.298C90.298 37.8616 90.298 37.8616 90.298 37.7358V34.717C90.298 34.5912 90.298 34.4654 90.298 34.2138C90.298 34.088 90.298 33.9622 90.298 33.7107C90.1743 33.8365 90.0506 33.9622 90.0506 34.2138C89.9269 34.3396 89.8032 34.4654 89.6795 34.717L87.5767 37.7358C87.5767 37.7358 87.5767 37.7358 87.453 37.8616C87.453 37.8616 87.453 37.8616 87.3293 37.8616H87.2056H87.0819C86.9582 37.8616 86.9582 37.8616 86.8345 37.8616H86.7108C86.7108 37.8616 86.7108 37.8616 86.5871 37.8616C86.5871 37.8616 86.5871 37.8616 86.5871 37.7358V32.4528C86.5871 32.4528 86.5871 32.4528 86.5871 32.327C86.5871 32.327 86.5871 32.327 86.7108 32.327H86.8345C86.8345 32.327 86.9582 32.327 87.0819 32.327C87.2056 32.327 87.453 32.327 87.453 32.327C87.5767 32.327 87.5767 32.4528 87.5767 32.4528V35.4717C87.5767 35.5975 87.5767 35.7232 87.5767 35.9748C87.5767 36.1006 87.5767 36.2264 87.5767 36.478C87.7004 36.3522 87.7004 36.2264 87.824 36.1006C87.9477 35.9748 88.0714 35.849 88.0714 35.7232L90.298 32.5786C90.298 32.5786 90.298 32.5786 90.4217 32.4528C90.5454 32.327 90.4217 32.4528 90.5454 32.4528H90.6691C90.6691 32.4528 90.7928 32.4528 90.9165 32.4528C91.0401 32.4528 91.0401 32.4528 91.1638 32.4528H91.2875C91.2875 32.4528 91.2875 32.4528 91.4112 32.4528C91.4112 32.4528 91.4112 32.4528 91.4112 32.5786V37.7358H91.2875ZM97.8434 34.9685C97.8434 35.3459 97.8434 35.849 97.7197 36.1006C97.596 36.478 97.4723 36.7295 97.2249 36.9811C96.9776 37.2327 96.7302 37.4843 96.3591 37.61C95.988 37.7358 95.6169 37.8616 95.2458 37.8616C94.8747 37.8616 94.5036 37.7358 94.1325 37.61C93.7615 37.4843 93.5141 37.2327 93.3904 37.1069C93.143 36.8553 93.0193 36.6037 92.8956 36.2264C92.7719 35.849 92.7719 35.4717 92.7719 35.0943C92.7719 34.717 92.7719 34.2138 92.8956 33.9622C93.0193 33.5849 93.143 33.3333 93.3904 33.0817C93.6378 32.8302 93.8851 32.5786 94.2562 32.4528C94.6273 32.327 94.9984 32.2012 95.3695 32.2012C95.7406 32.2012 96.1117 32.327 96.4828 32.4528C96.8539 32.5786 97.1012 32.8302 97.2249 32.956C97.4723 33.2075 97.596 33.4591 97.7197 33.8365C97.7197 34.2138 97.8434 34.5912 97.8434 34.9685ZM96.8539 35.0943C96.8539 34.8427 96.8539 34.5912 96.7302 34.3396C96.7302 34.088 96.6065 33.8365 96.4828 33.7107C96.3591 33.4591 96.2354 33.3333 95.988 33.2075C95.7406 33.0817 95.4932 33.0817 95.2458 33.0817C94.9984 33.0817 94.751 33.0817 94.5036 33.2075C94.2562 33.3333 94.1325 33.4591 94.0089 33.5849C93.8852 33.7107 93.7615 33.9622 93.7615 34.2138C93.6378 34.4654 93.6378 34.717 93.6378 35.0943C93.6378 35.3459 93.6378 35.5975 93.7615 35.849C93.7615 36.1006 93.8852 36.3522 94.0089 36.478C94.1325 36.6037 94.2562 36.8553 94.5036 36.9811C94.751 37.1069 94.9984 37.1069 95.2458 37.1069C95.4932 37.1069 95.7406 37.1069 95.988 36.9811C96.2354 36.8553 96.3591 36.7295 96.4828 36.6037C96.6065 36.478 96.7302 36.2264 96.7302 35.9748C96.8539 35.5975 96.8539 35.3459 96.8539 35.0943ZM103.781 37.7358C103.781 37.8616 103.657 37.8616 103.657 37.8616H103.533C103.533 37.8616 103.41 37.8616 103.286 37.8616C103.162 37.8616 103.162 37.8616 103.039 37.8616C102.915 37.8616 102.915 37.8616 102.915 37.8616C102.915 37.8616 102.915 37.8616 102.791 37.8616C102.791 37.8616 102.791 37.8616 102.791 37.7358V35.4717H100.194V37.7358C100.194 37.7358 100.194 37.7358 100.194 37.8616C100.194 37.8616 100.194 37.8616 100.07 37.8616H99.9463C99.9463 37.8616 99.8226 37.8616 99.6989 37.8616C99.5752 37.8616 99.5752 37.8616 99.4515 37.8616C99.3278 37.8616 99.3278 37.8616 99.3278 37.8616H99.2041C99.2041 37.8616 99.2041 37.8616 99.2041 37.7358V32.4528C99.2041 32.4528 99.2041 32.4528 99.2041 32.327C99.2041 32.327 99.2041 32.327 99.3278 32.327H99.4515C99.4515 32.327 99.5752 32.327 99.6989 32.327C99.8226 32.327 99.8226 32.327 99.9463 32.327C100.07 32.327 100.07 32.327 100.07 32.327C100.07 32.327 100.07 32.327 100.194 32.327C100.194 32.327 100.194 32.327 100.194 32.4528V34.5912H102.791V32.4528C102.791 32.4528 102.791 32.4528 102.791 32.327C102.791 32.327 102.791 32.327 102.915 32.327H103.039C103.039 32.327 103.162 32.327 103.286 32.327C103.41 32.327 103.41 32.327 103.533 32.327C103.657 32.327 103.657 32.327 103.657 32.327C103.657 32.327 103.657 32.327 103.781 32.327C103.781 32.327 103.781 32.327 103.781 32.4528V37.7358ZM110.089 37.7358C110.089 37.7358 109.966 37.7358 110.089 37.7358C110.089 37.8616 109.966 37.8616 109.966 37.8616H109.842C109.842 37.8616 109.718 37.8616 109.595 37.8616C109.471 37.8616 109.471 37.8616 109.347 37.8616C109.223 37.8616 109.223 37.8616 109.223 37.8616C109.223 37.8616 109.223 37.8616 109.1 37.8616C109.1 37.8616 109.1 37.8616 109.1 37.7358V35.4717H106.502V37.7358C106.502 37.7358 106.502 37.7358 106.502 37.8616C106.502 37.8616 106.502 37.8616 106.378 37.8616H106.255C106.255 37.8616 106.131 37.8616 106.007 37.8616C105.884 37.8616 105.884 37.8616 105.76 37.8616C105.636 37.8616 105.636 37.8616 105.636 37.8616H105.513C105.513 37.8616 105.513 37.8616 105.513 37.7358V32.4528C105.513 32.4528 105.513 32.4528 105.513 32.327C105.513 32.327 105.513 32.327 105.636 32.327H105.76C105.76 32.327 105.884 32.327 106.007 32.327C106.131 32.327 106.131 32.327 106.255 32.327C106.378 32.327 106.378 32.327 106.378 32.327C106.378 32.327 106.378 32.327 106.502 32.327C106.502 32.327 106.502 32.327 106.502 32.4528V34.5912H109.1V32.4528C109.1 32.4528 109.1 32.4528 109.1 32.327C109.1 32.327 109.1 32.327 109.223 32.327H109.347C109.347 32.327 109.471 32.327 109.595 32.327C109.718 32.327 109.718 32.327 109.842 32.327C109.966 32.327 109.966 32.327 109.966 32.327C109.966 32.327 109.966 32.327 110.089 32.327C110.089 32.327 110.089 32.327 110.089 32.4528V37.7358ZM117.882 37.7358C117.882 37.8616 117.758 37.8616 117.758 37.8616H117.635C117.635 37.8616 117.511 37.8616 117.387 37.8616C117.264 37.8616 117.264 37.8616 117.14 37.8616C117.016 37.8616 117.016 37.8616 117.016 37.8616H116.893C116.893 37.8616 116.893 37.8616 116.893 37.7358V32.4528C116.893 32.4528 116.893 32.4528 116.893 32.327C116.893 32.327 116.893 32.327 117.016 32.327H117.14C117.14 32.327 117.264 32.327 117.387 32.327C117.511 32.327 117.511 32.327 117.635 32.327C117.758 32.327 117.758 32.327 117.758 32.327C117.758 32.327 117.758 32.327 117.882 32.327C117.882 32.327 117.882 32.327 117.882 32.4528V37.7358ZM112.687 34.2138C112.811 34.2138 112.934 34.2138 113.058 34.2138C113.182 34.2138 113.305 34.2138 113.553 34.2138C113.924 34.2138 114.295 34.2138 114.542 34.3396C114.79 34.4654 115.037 34.5912 115.285 34.717C115.532 34.8427 115.656 35.0943 115.656 35.2201C115.779 35.4717 115.779 35.7232 115.779 35.9748C115.779 36.2264 115.779 36.478 115.656 36.7295C115.532 36.9811 115.408 37.1069 115.161 37.3585C114.913 37.4843 114.666 37.61 114.419 37.7358C114.048 37.8616 113.677 37.8616 113.305 37.8616C113.182 37.8616 113.058 37.8616 112.934 37.8616C112.811 37.8616 112.687 37.8616 112.687 37.8616C112.563 37.8616 112.44 37.8616 112.44 37.8616C112.316 37.8616 112.192 37.8616 112.192 37.8616C112.068 37.8616 111.945 37.7358 111.821 37.7358C111.697 37.61 111.697 37.4843 111.697 37.3585V32.4528C111.697 32.4528 111.697 32.4528 111.697 32.327C111.697 32.327 111.697 32.327 111.821 32.327H111.945C111.945 32.327 112.068 32.327 112.192 32.327C112.316 32.327 112.563 32.327 112.563 32.327C112.687 32.327 112.687 32.4528 112.687 32.4528V34.2138ZM114.913 36.1006C114.913 35.9748 114.913 35.849 114.79 35.7232C114.79 35.5975 114.666 35.4717 114.542 35.3459C114.419 35.2201 114.295 35.2201 114.171 35.0943C114.048 35.0943 113.8 34.9685 113.553 34.9685C113.429 34.9685 113.305 34.9685 113.058 34.9685C112.934 34.9685 112.811 34.9685 112.687 34.9685V36.9811C112.811 36.9811 112.934 36.9811 113.058 36.9811C113.182 36.9811 113.305 36.9811 113.553 36.9811C114.048 36.9811 114.419 36.8553 114.542 36.7295C114.79 36.6037 114.913 36.3522 114.913 36.1006ZM123.572 37.61V37.7358V37.8616H123.448C123.325 37.8616 123.325 37.8616 123.201 37.8616C123.077 37.8616 122.954 37.8616 122.954 37.8616C122.83 37.8616 122.83 37.8616 122.83 37.8616H122.706C122.706 37.8616 122.706 37.8616 122.706 37.7358L121.469 35.5975L119.985 37.7358C119.985 37.7358 119.985 37.7358 119.985 37.8616C119.985 37.8616 119.985 37.8616 119.861 37.8616H119.738C119.614 37.8616 119.614 37.8616 119.49 37.8616C119.367 37.8616 119.243 37.8616 119.243 37.8616C119.119 37.8616 119.119 37.8616 119.119 37.8616C119.119 37.8616 119.119 37.8616 119.119 37.7358V37.61L120.727 35.0943L119.243 32.5786V32.4528V32.327H119.367C119.49 32.327 119.49 32.327 119.614 32.327C119.738 32.327 119.861 32.327 119.861 32.327C119.985 32.327 119.985 32.327 119.985 32.327H120.109C120.109 32.327 120.109 32.327 120.109 32.4528L121.222 34.4654L122.459 32.4528C122.459 32.4528 122.459 32.4528 122.459 32.327C122.459 32.327 122.459 32.327 122.583 32.327H122.706C122.706 32.327 122.83 32.327 122.954 32.327C123.077 32.327 123.201 32.327 123.201 32.327C123.325 32.327 123.325 32.327 123.325 32.327C123.325 32.327 123.325 32.327 123.325 32.4528V32.5786L121.84 34.9685L123.572 37.61ZM130.994 32.7044C130.994 32.8302 130.994 32.8302 130.994 32.956V33.0817C130.994 33.0817 130.994 33.0817 130.994 33.2075C130.994 33.2075 130.994 33.2075 130.87 33.2075H129.386V37.7358C129.386 37.7358 129.386 37.7358 129.386 37.8616C129.386 37.8616 129.386 37.8616 129.262 37.8616H129.139C129.139 37.8616 129.015 37.8616 128.891 37.8616C128.767 37.8616 128.767 37.8616 128.644 37.8616C128.52 37.8616 128.52 37.8616 128.52 37.8616H128.396C128.396 37.8616 128.396 37.8616 128.396 37.7358V33.2075H126.912C126.912 33.2075 126.912 33.2075 126.788 33.2075C126.788 33.2075 126.788 33.2075 126.788 33.0817V32.956C126.788 32.956 126.788 32.8302 126.788 32.7044C126.788 32.5786 126.788 32.5786 126.788 32.5786V32.4528V32.327C126.788 32.327 126.788 32.327 126.912 32.327H130.994C130.994 32.327 130.994 32.327 131.118 32.327C131.241 32.327 131.118 32.327 131.118 32.4528V32.5786C130.994 32.5786 130.994 32.7044 130.994 32.7044ZM136.56 34.9685C136.56 35.3459 136.56 35.849 136.437 36.1006C136.313 36.478 136.189 36.7295 135.942 36.9811C135.694 37.2327 135.447 37.4843 135.076 37.61C134.705 37.7358 134.334 37.8616 133.963 37.8616C133.592 37.8616 133.22 37.7358 132.849 37.61C132.478 37.4843 132.231 37.2327 132.107 37.1069C131.86 36.8553 131.736 36.6037 131.612 36.2264C131.489 35.849 131.489 35.4717 131.489 35.0943C131.489 34.717 131.489 34.2138 131.612 33.9622C131.736 33.5849 131.86 33.3333 132.107 33.0817C132.355 32.8302 132.602 32.5786 132.973 32.4528C133.344 32.327 133.715 32.2012 134.086 32.2012C134.457 32.2012 134.829 32.327 135.2 32.4528C135.571 32.5786 135.818 32.8302 135.942 32.956C136.189 33.2075 136.313 33.4591 136.437 33.8365C136.56 34.2138 136.56 34.5912 136.56 34.9685ZM135.571 35.0943C135.571 34.8427 135.571 34.5912 135.447 34.3396C135.447 34.088 135.323 33.8365 135.2 33.7107C135.076 33.4591 134.952 33.3333 134.705 33.2075C134.457 33.0817 134.21 33.0817 133.963 33.0817C133.715 33.0817 133.468 33.0817 133.22 33.2075C132.973 33.3333 132.849 33.4591 132.726 33.5849C132.602 33.7107 132.478 33.9622 132.478 34.2138C132.355 34.4654 132.355 34.717 132.355 35.0943C132.355 35.3459 132.355 35.5975 132.478 35.849C132.478 36.1006 132.602 36.3522 132.726 36.478C132.849 36.6037 132.973 36.8553 133.22 36.9811C133.468 37.1069 133.715 37.1069 133.963 37.1069C134.21 37.1069 134.457 37.1069 134.705 36.9811C134.952 36.8553 135.076 36.7295 135.2 36.6037C135.323 36.478 135.447 36.2264 135.447 35.9748C135.571 35.5975 135.571 35.3459 135.571 35.0943ZM142.25 36.1006C142.25 36.3522 142.25 36.6037 142.127 36.8553C142.003 37.1069 141.879 37.2327 141.632 37.3585C141.384 37.4843 141.137 37.61 140.89 37.7358C140.642 37.8616 140.271 37.8616 139.776 37.8616C139.653 37.8616 139.529 37.8616 139.405 37.8616C139.282 37.8616 139.158 37.8616 139.034 37.8616C138.91 37.8616 138.787 37.8616 138.663 37.8616C138.539 37.8616 138.416 37.8616 138.292 37.8616C138.168 37.8616 138.045 37.7358 137.921 37.7358C137.797 37.61 137.797 37.4843 137.797 37.3585V32.8302C137.797 32.7044 137.797 32.5786 137.921 32.4528C138.045 32.327 138.045 32.327 138.292 32.327C138.416 32.327 138.539 32.327 138.663 32.327C138.787 32.327 138.91 32.327 139.034 32.327C139.158 32.327 139.282 32.327 139.405 32.327C139.529 32.327 139.653 32.327 139.776 32.327C140.147 32.327 140.519 32.327 140.766 32.4528C141.013 32.4528 141.261 32.5786 141.384 32.7044C141.508 32.8302 141.755 32.9559 141.755 33.2075C141.879 33.3333 141.879 33.5849 141.879 33.8365C141.879 34.088 141.756 34.3396 141.632 34.5912C141.508 34.8427 141.261 34.9685 140.89 35.0943C141.261 35.2201 141.508 35.3459 141.755 35.5975C142.127 35.4717 142.25 35.849 142.25 36.1006ZM141.013 33.7107C141.013 33.5849 141.013 33.4591 140.89 33.3333C140.89 33.2075 140.766 33.2075 140.642 33.0817C140.519 32.9559 140.395 32.956 140.271 32.956C140.147 32.956 139.9 32.956 139.653 32.956C139.529 32.956 139.282 32.956 139.158 32.956C139.034 32.956 138.91 32.956 138.787 32.956V34.5912H139.776C140.147 34.5912 140.519 34.4654 140.642 34.3396C141.013 34.2138 141.013 33.9622 141.013 33.7107ZM141.261 36.2264C141.261 36.1006 141.261 35.9748 141.137 35.849C141.137 35.7232 141.013 35.5975 140.89 35.5975C140.766 35.4717 140.642 35.4717 140.395 35.4717C140.271 35.4717 140.024 35.4717 139.776 35.4717H138.91V37.3585C139.034 37.3585 139.034 37.3585 139.158 37.3585C139.282 37.3585 139.282 37.3585 139.405 37.3585C139.529 37.3585 139.529 37.3585 139.653 37.3585C139.776 37.3585 139.776 37.3585 139.9 37.3585C140.147 37.3585 140.395 37.3585 140.519 37.2327C140.642 37.2327 140.89 37.1069 141.013 36.9811C141.137 36.8553 141.261 36.7295 141.261 36.7295C141.261 36.478 141.261 36.3522 141.261 36.2264ZM147.446 37.7358C147.322 37.8616 147.322 37.8616 147.322 37.8616C147.322 37.8616 147.198 37.8616 147.074 37.8616C146.951 37.8616 146.951 37.8616 146.827 37.8616H146.703C146.703 37.8616 146.703 37.8616 146.703 37.7358V37.2327C146.456 37.4843 146.209 37.61 145.961 37.8616C145.714 37.9874 145.343 38.1132 145.095 38.1132C144.848 38.1132 144.601 38.1132 144.353 37.9874C144.106 37.8616 143.982 37.8616 143.735 37.7358C143.611 37.61 143.487 37.4843 143.364 37.2327C143.24 36.9811 143.24 36.8553 143.24 36.6037C143.24 36.3522 143.24 36.1006 143.364 35.849C143.487 35.5975 143.611 35.4717 143.858 35.3459C144.106 35.2201 144.353 35.0943 144.724 34.9685C145.095 34.8427 145.466 34.8427 145.837 34.8427H146.58V34.4654C146.58 34.2138 146.58 34.088 146.456 33.9622C146.456 33.8365 146.332 33.7107 146.209 33.5849C146.085 33.4591 145.961 33.4591 145.837 33.3333C145.714 33.3333 145.466 33.2075 145.343 33.2075C145.095 33.2075 144.848 33.2075 144.724 33.3333C144.477 33.3333 144.353 33.4591 144.229 33.5849C144.106 33.7107 143.982 33.7107 143.858 33.8365C143.735 33.8365 143.735 33.9622 143.611 33.9622C143.611 33.9622 143.611 33.9622 143.487 33.9622C143.487 33.9622 143.487 33.9622 143.487 33.8365V33.7107V33.5849C143.487 33.4591 143.487 33.4591 143.487 33.3333C143.487 33.2075 143.487 33.2075 143.611 33.2075C143.611 33.2075 143.735 33.0817 143.858 33.0817C143.982 32.9559 144.106 32.9559 144.353 32.8302C144.477 32.8302 144.724 32.7044 144.848 32.7044C145.095 32.7044 145.219 32.7044 145.466 32.7044C145.837 32.7044 146.209 32.7044 146.456 32.8302C146.703 32.9559 146.951 33.0817 147.074 33.2075C147.198 33.3333 147.322 33.5849 147.446 33.8365C147.569 34.088 147.569 34.3396 147.569 34.717V37.7358H147.446ZM146.58 35.2201H145.714C145.466 35.2201 145.219 35.2201 145.095 35.3459C144.848 35.3459 144.724 35.4717 144.601 35.5975C144.477 35.7232 144.353 35.849 144.353 35.9748C144.353 36.1006 144.229 36.2264 144.229 36.3522C144.229 36.6037 144.353 36.8553 144.477 36.9811C144.601 37.1069 144.848 37.2327 145.219 37.2327C145.466 37.2327 145.714 37.1069 145.961 36.9811C146.209 36.8553 146.456 36.6037 146.58 36.3522V35.2201ZM154.001 34.9685C154.001 35.4717 154.001 35.849 153.878 36.2264C153.754 36.6037 153.63 36.8553 153.507 37.1069C153.259 37.3585 153.136 37.61 152.764 37.7358C152.517 37.8616 152.146 37.9874 151.775 37.9874C151.651 37.9874 151.527 37.9874 151.404 37.9874C151.28 37.9874 151.156 37.8616 151.033 37.8616C150.909 37.7358 150.785 37.7358 150.662 37.61C150.538 37.4843 150.414 37.3585 150.291 37.2327V39.8742C150.291 39.8742 150.291 39.8742 150.291 40C150.291 40 150.291 40 150.167 40H150.043C150.043 40 149.919 40 149.796 40C149.672 40 149.672 40 149.548 40C149.425 40 149.425 40 149.425 40H149.301C149.301 40 149.301 40 149.301 39.8742V32.5786V32.4528C149.301 32.4528 149.301 32.4528 149.425 32.4528H149.548C149.548 32.4528 149.672 32.4528 149.796 32.4528C149.919 32.4528 149.919 32.4528 150.043 32.4528H150.167C150.167 32.4528 150.167 32.4528 150.291 32.4528C150.291 32.4528 150.291 32.4528 150.291 32.5786V33.3333C150.414 33.2075 150.538 33.0817 150.785 32.956C150.909 32.8302 151.033 32.7044 151.28 32.7044C151.404 32.5786 151.527 32.5786 151.775 32.5786C151.899 32.5786 152.146 32.5786 152.27 32.5786C152.641 32.5786 153.012 32.7044 153.259 32.8302C153.507 32.9559 153.754 33.2075 153.878 33.4591C154.001 33.7107 154.125 33.9622 154.249 34.3396C153.878 34.2138 154.001 34.5912 154.001 34.9685ZM153.012 35.0943C153.012 34.8427 153.012 34.5912 153.012 34.3396C153.012 34.088 152.888 33.8365 152.764 33.7107C152.641 33.4591 152.517 33.3333 152.393 33.2075C152.27 33.0817 152.022 33.0817 151.775 33.0817C151.651 33.0817 151.527 33.0817 151.404 33.0817C151.28 33.0817 151.156 33.2075 151.033 33.2075C150.909 33.3333 150.785 33.3333 150.662 33.5849C150.538 33.7107 150.414 33.8365 150.291 34.088V36.2264C150.538 36.6037 150.785 36.8553 151.033 36.9811C151.28 37.1069 151.527 37.2327 151.775 37.2327C152.022 37.2327 152.27 37.2327 152.393 37.1069C152.517 36.9811 152.641 36.8553 152.764 36.6037C152.888 36.3522 152.888 36.2264 153.012 35.9748C153.012 35.5975 153.012 35.3459 153.012 35.0943Z" fill="#7ECFF4"/>
<path fill-rule="evenodd" clip-rule="evenodd" d="M160.186 34.9685C160.186 35.3459 160.186 35.849 160.062 36.1006C159.939 36.478 159.815 36.7295 159.568 36.9811C159.32 37.2327 159.073 37.4842 158.702 37.61C158.331 37.7358 157.96 37.8616 157.589 37.8616C157.217 37.8616 156.846 37.7358 156.475 37.61C156.104 37.4842 155.857 37.2327 155.733 37.1069C155.486 36.8553 155.362 36.6037 155.238 36.2264C155.115 35.849 155.115 35.4717 155.115 35.0943C155.115 34.717 155.115 34.2138 155.238 33.9622C155.362 33.5849 155.486 33.3333 155.733 33.0817C155.98 32.8302 156.228 32.5786 156.599 32.4528C156.97 32.327 157.341 32.2012 157.712 32.2012C158.083 32.2012 158.454 32.327 158.825 32.4528C159.197 32.5786 159.444 32.8302 159.568 32.9559C159.815 33.2075 159.939 33.4591 160.062 33.8365C160.186 34.2138 160.186 34.5912 160.186 34.9685ZM159.197 35.0943C159.197 34.8427 159.197 34.5912 159.073 34.3396C159.073 34.088 158.949 33.8365 158.825 33.7107C158.702 33.4591 158.578 33.3333 158.331 33.2075C158.083 33.0817 157.836 33.0817 157.589 33.0817C157.341 33.0817 157.094 33.0817 156.846 33.2075C156.599 33.3333 156.475 33.4591 156.352 33.5849C156.228 33.7107 156.104 33.9622 156.104 34.2138C155.98 34.4654 155.98 34.717 155.98 35.0943C155.98 35.3459 155.98 35.5975 156.104 35.849C156.104 36.1006 156.228 36.3522 156.352 36.478C156.475 36.6037 156.599 36.8553 156.846 36.9811C157.094 37.1069 157.341 37.1069 157.589 37.1069C157.836 37.1069 158.083 37.1069 158.331 36.9811C158.578 36.8553 158.702 36.7295 158.825 36.6037C158.949 36.478 159.073 36.2264 159.073 35.9748C159.197 35.5975 159.197 35.3459 159.197 35.0943ZM165.876 36.1006C165.876 36.3522 165.876 36.6037 165.752 36.8553C165.629 37.1069 165.505 37.2327 165.258 37.3585C165.01 37.4842 164.763 37.61 164.516 37.7358C164.268 37.8616 163.897 37.8616 163.402 37.8616C163.279 37.8616 163.155 37.8616 163.031 37.8616C162.907 37.8616 162.784 37.8616 162.66 37.8616C162.536 37.8616 162.413 37.8616 162.289 37.8616C162.165 37.8616 162.042 37.8616 161.918 37.8616C161.794 37.8616 161.671 37.7358 161.547 37.7358C161.423 37.61 161.423 37.4842 161.423 37.3585V32.8302C161.423 32.7044 161.423 32.5786 161.547 32.4528C161.671 32.327 161.67 32.327 161.918 32.327C162.042 32.327 162.165 32.327 162.289 32.327C162.413 32.327 162.536 32.327 162.66 32.327C162.784 32.327 162.907 32.327 163.031 32.327C163.155 32.327 163.279 32.327 163.402 32.327C163.773 32.327 164.144 32.327 164.392 32.4528C164.639 32.4528 164.887 32.5786 165.01 32.7044C165.134 32.8302 165.381 32.9559 165.381 33.2075C165.505 33.3333 165.505 33.5849 165.505 33.8365C165.505 34.088 165.381 34.3396 165.258 34.5912C165.134 34.8427 164.887 34.9685 164.516 35.0943C164.887 35.2201 165.134 35.3459 165.381 35.5975C165.752 35.4717 165.876 35.849 165.876 36.1006ZM164.639 33.7107C164.639 33.5849 164.639 33.4591 164.516 33.3333C164.516 33.2075 164.392 33.2075 164.268 33.0817C164.144 32.9559 164.021 32.9559 163.897 32.9559C163.773 32.9559 163.526 32.9559 163.279 32.9559C163.155 32.9559 162.907 32.9559 162.784 32.9559C162.66 32.9559 162.536 32.9559 162.413 32.9559V34.5912H163.402C163.773 34.5912 164.144 34.4654 164.268 34.3396C164.639 34.2138 164.639 33.9622 164.639 33.7107ZM164.887 36.2264C164.887 36.1006 164.887 35.9748 164.763 35.849C164.763 35.7232 164.639 35.5975 164.516 35.5975C164.392 35.4717 164.268 35.4717 164.021 35.4717C163.897 35.4717 163.65 35.4717 163.402 35.4717H162.536V37.3585C162.66 37.3585 162.66 37.3585 162.784 37.3585C162.907 37.3585 162.907 37.3585 163.031 37.3585C163.155 37.3585 163.155 37.3585 163.279 37.3585C163.402 37.3585 163.402 37.3585 163.526 37.3585C163.773 37.3585 164.021 37.3585 164.144 37.2327C164.268 37.2327 164.516 37.1069 164.639 36.9811C164.763 36.8553 164.887 36.7295 164.887 36.7295C164.763 36.478 164.887 36.3522 164.887 36.2264Z" fill="#7ECFF4"/>
<path fill-rule="evenodd" clip-rule="evenodd" d="M10.7615 27.2956L6.92697 16.1006L6.1848 27.2956H0L1.85544 0H8.04024L13.9776 16.9811L20.0387 0H26.2235L27.9553 27.2956H21.7705L21.152 16.1006L17.1937 27.2956H10.7615Z" fill="white"/>
<path fill-rule="evenodd" clip-rule="evenodd" d="M87.7004 27.2956L83.7421 16.1006L83.1236 27.2956H76.9388L78.6706 0H84.8554L90.9165 16.9811L96.8539 0H103.039L104.894 27.2956H98.7093L97.9671 16.1006L94.1326 27.2956H87.7004Z" fill="white"/>
<path fill-rule="evenodd" clip-rule="evenodd" d="M36.1192 24.0252L35.006 27.2956H28.4501L37.6036 0C39.459 0 41.3145 0 43.2936 0L52.4471 27.2956H45.8912L44.7779 24.0252H36.1192ZM40.4486 11.4465C39.9538 13.2075 38.8405 15.9748 38.2221 17.8616C39.7064 17.8616 41.1908 17.8616 42.6751 17.8616C41.9329 15.8491 40.8197 13.2075 40.4486 11.4465Z" fill="white"/>
<path fill-rule="evenodd" clip-rule="evenodd" d="M64.4457 19.4969L59.9926 27.2956H52.8182L61.2296 13.3333L53.0656 0H60.1163L64.4457 6.91824L68.775 0H75.9494L67.7854 13.3333L76.0731 27.2956H68.8987L64.4457 19.4969Z" fill="white"/>
<path fill-rule="evenodd" clip-rule="evenodd" d="M133.097 0H139.282V21.0063H149.054V27.2956H139.282H133.097V21.0063V0Z" fill="white"/>
<path fill-rule="evenodd" clip-rule="evenodd" d="M150.043 0H156.228V21.0063H166V27.2956H156.228H150.043V21.0063V0Z" fill="white"/>
<path fill-rule="evenodd" clip-rule="evenodd" d="M108.976 4.27678C109.966 3.27049 111.574 3.27049 112.563 4.15099C113.553 5.15728 113.553 6.7925 112.687 7.79879C111.945 8.55351 111.326 9.43401 110.955 10.4403C110.584 11.4466 110.337 12.4529 110.337 13.585C110.337 15.8491 111.203 17.9875 112.687 19.4969C114.171 21.0063 116.274 21.8868 118.501 21.8868C119.119 21.8868 119.614 21.8868 120.233 21.7611C117.511 23.5221 114.419 24.6541 111.079 24.7799C111.079 24.7799 111.203 24.7799 111.203 24.9057C110.461 24.4026 109.842 23.8994 109.224 23.2705C106.873 20.8806 105.389 17.4843 105.389 13.7107C105.389 11.9497 105.76 10.3145 106.379 8.6793C106.873 7.04408 107.739 5.53464 108.976 4.27678Z" fill="url(#paint0_linear)"/>
<path opacity="0.37" fill-rule="evenodd" clip-rule="evenodd" d="M117.635 22.0126C118.006 22.0126 118.253 22.0126 118.624 22.0126C119.243 22.0126 119.738 22.0126 120.356 21.8868C117.635 23.6478 114.542 24.7799 111.203 24.9057C111.203 24.9057 111.326 24.9057 111.326 25.0314C111.326 25.0314 111.203 25.0314 111.203 24.9057L117.635 22.0126ZM111.079 24.9057C113.429 24.5283 116.151 23.522 117.635 22.0126L111.079 24.9057Z" fill="black"/>
<path fill-rule="evenodd" clip-rule="evenodd" d="M118.624 0.125793C120.109 0.125793 121.346 1.38365 121.346 2.89309V9.1824C121.346 10.6918 120.109 11.9497 118.624 11.9497C117.14 11.9497 115.903 10.6918 115.903 9.1824V2.89309C115.903 1.38365 117.14 0.125793 118.624 0.125793Z" fill="url(#paint1_linear)"/>
<path fill-rule="evenodd" clip-rule="evenodd" d="M120.233 21.8868C121.841 21.5094 123.201 20.7547 124.314 19.6226C125.799 18.1132 126.665 15.9748 126.665 13.7107C126.665 12.5786 126.417 11.4465 126.046 10.4403C125.675 9.43397 125.057 8.55347 124.191 7.67296C123.201 6.66667 123.201 5.03145 124.191 4.02516C125.18 3.01887 126.788 3.01887 127.778 4.02516C129.015 5.28303 130.004 6.79246 130.623 8.42768C131.241 10.0629 131.613 11.8239 131.613 13.5849C131.613 17.3585 130.128 20.7547 127.778 23.1447C125.428 25.5346 122.088 27.044 118.377 27.044C115.656 27.044 113.058 26.1635 110.955 24.6541C114.419 24.7799 117.635 23.6478 120.233 21.8868Z" fill="url(#paint2_linear)"/>
<defs>
<linearGradient id="paint0_linear" x1="105.257" y1="14.2189" x2="126.111" y2="14.2189" gradientUnits="userSpaceOnUse">
<stop stop-color="#EE2436"/>
<stop offset="0.34" stop-color="#D40F5B"/>
<stop offset="0.64" stop-color="#5D2B8C"/>
<stop offset="1" stop-color="#592D8F"/>
</linearGradient>
<linearGradient id="paint1_linear" x1="118.924" y1="0.302271" x2="118.227" y2="11.7108" gradientUnits="userSpaceOnUse">
<stop stop-color="#D6105A"/>
<stop offset="0.061292" stop-color="#D0135D"/>
<stop offset="0.7124" stop-color="#8B2680"/>
<stop offset="1" stop-color="#6D2C91"/>
</linearGradient>
<linearGradient id="paint2_linear" x1="111.077" y1="15.2663" x2="131.852" y2="15.2663" gradientUnits="userSpaceOnUse">
<stop stop-color="#2D3795"/>
<stop offset="1" stop-color="#4BC6DF"/>
</linearGradient>
</defs>
</svg>
