<svg width="21" height="21" viewBox="0 0 21 21" fill="none" xmlns="http://www.w3.org/2000/svg">
<path d="M18.34 7.82013L4.34 0.820128C3.78749 0.545137 3.16362 0.447239 2.55344 0.53978C1.94326 0.632321 1.37646 0.910798 0.930335 1.33724C0.484207 1.76369 0.180456 2.31735 0.060496 2.92274C-0.059464 3.52813 0.0102046 4.15578 0.260003 4.72013L2.66 10.0901C2.71446 10.22 2.74251 10.3593 2.74251 10.5001C2.74251 10.6409 2.71446 10.7803 2.66 10.9101L0.260003 16.2801C0.0567034 16.7368 -0.029241 17.2371 0.00998036 17.7355C0.0492018 18.2339 0.212345 18.7145 0.484585 19.1338C0.756825 19.5531 1.12953 19.8977 1.56883 20.1363C2.00812 20.375 2.50009 20.5 3 20.5001C3.46823 20.4955 3.92949 20.3861 4.35 20.1801L18.35 13.1801C18.8466 12.9303 19.264 12.5474 19.5557 12.0742C19.8474 11.601 20.0018 11.056 20.0018 10.5001C20.0018 9.94424 19.8474 9.39928 19.5557 8.92605C19.264 8.45282 18.8466 8.06994 18.35 7.82013H18.34ZM17.45 11.3901L3.45 18.3901C3.26617 18.4784 3.05973 18.5084 2.85839 18.476C2.65705 18.4436 2.47041 18.3504 2.32352 18.209C2.17662 18.0675 2.07648 17.8845 2.03653 17.6846C1.99658 17.4846 2.01873 17.2772 2.1 17.0901L4.49 11.7201C4.52094 11.6484 4.54766 11.575 4.57 11.5001H11.46C11.7252 11.5001 11.9796 11.3948 12.1671 11.2072C12.3546 11.0197 12.46 10.7653 12.46 10.5001C12.46 10.2349 12.3546 9.98056 12.1671 9.79302C11.9796 9.60549 11.7252 9.50013 11.46 9.50013H4.57C4.54766 9.4253 4.52094 9.35184 4.49 9.28013L2.1 3.91013C2.01873 3.72309 1.99658 3.51568 2.03653 3.3157C2.07648 3.11572 2.17662 2.93273 2.32352 2.79128C2.47041 2.64982 2.65705 2.55666 2.85839 2.52428C3.05973 2.4919 3.26617 2.52186 3.45 2.61013L17.45 9.61013C17.6138 9.69405 17.7513 9.82154 17.8473 9.97857C17.9433 10.1356 17.994 10.3161 17.994 10.5001C17.994 10.6842 17.9433 10.8647 17.8473 11.0217C17.7513 11.1787 17.6138 11.3062 17.45 11.3901Z" fill="#852984"/>
</svg>
