<svg width="21" height="21" viewBox="0 0 21 21" fill="none" xmlns="http://www.w3.org/2000/svg">
<path d="M18.44 11.4999C18.22 11.4999 17.99 11.4299 17.77 11.3799C17.3245 11.2817 16.8866 11.1514 16.46 10.9899C15.9961 10.8211 15.4861 10.8299 15.0283 11.0145C14.5704 11.1991 14.1971 11.5465 13.98 11.9899L13.76 12.4399C12.786 11.898 11.891 11.2251 11.1 10.4399C10.3147 9.64888 9.6418 8.75387 9.09998 7.77987L9.51998 7.49987C9.96334 7.28278 10.3108 6.9094 10.4954 6.45156C10.68 5.99372 10.6888 5.48378 10.52 5.01987C10.3612 4.59229 10.2309 4.15467 10.13 3.70987C10.08 3.48987 10.04 3.25987 10.01 3.02987C9.88854 2.32549 9.5196 1.68761 8.9696 1.23111C8.4196 0.774605 7.72467 0.529477 7.00998 0.539868H4.00998C3.57901 0.535822 3.15223 0.624682 2.75869 0.800399C2.36515 0.976116 2.01409 1.23456 1.72941 1.55815C1.44473 1.88174 1.23311 2.26286 1.10897 2.67558C0.98482 3.0883 0.951058 3.52293 1.00998 3.94987C1.54272 8.13925 3.45601 12.0317 6.44763 15.0125C9.43925 17.9933 13.3387 19.8924 17.53 20.4099H17.91C18.6474 20.4109 19.3594 20.1404 19.91 19.6499C20.2263 19.3669 20.4791 19.02 20.6514 18.6322C20.8238 18.2443 20.9119 17.8243 20.91 17.3999V14.3999C20.8977 13.7053 20.6448 13.0364 20.1943 12.5075C19.7439 11.9786 19.1238 11.6225 18.44 11.4999ZM18.94 17.4999C18.9398 17.6419 18.9094 17.7822 18.8508 17.9115C18.7921 18.0408 18.7066 18.1562 18.6 18.2499C18.4882 18.3463 18.3576 18.4184 18.2164 18.4615C18.0752 18.5045 17.9265 18.5176 17.78 18.4999C14.0349 18.0197 10.5562 16.3064 7.89269 13.6302C5.22917 10.954 3.53239 7.46721 3.06998 3.71987C3.05406 3.57339 3.06801 3.4252 3.11098 3.28426C3.15395 3.14332 3.22505 3.01256 3.31998 2.89987C3.41369 2.7932 3.52904 2.70771 3.65836 2.64909C3.78767 2.59046 3.92799 2.56005 4.06998 2.55987H7.06998C7.30253 2.55469 7.5296 2.63075 7.71212 2.77494C7.89464 2.91913 8.02119 3.12244 8.06998 3.34987C8.10998 3.6232 8.15998 3.8932 8.21998 4.15987C8.3355 4.68701 8.48924 5.20505 8.67998 5.70987L7.27998 6.35987C7.16028 6.41479 7.0526 6.49281 6.96314 6.58946C6.87367 6.68611 6.80418 6.79948 6.75865 6.92306C6.71312 7.04664 6.69245 7.178 6.69783 7.30959C6.7032 7.44118 6.73452 7.57041 6.78998 7.68987C8.22918 10.7726 10.7072 13.2507 13.79 14.6899C14.0334 14.7899 14.3065 14.7899 14.55 14.6899C14.6747 14.6453 14.7893 14.5763 14.8871 14.4871C14.985 14.3978 15.0641 14.29 15.12 14.1699L15.74 12.7699C16.2569 12.9547 16.7846 13.1084 17.32 13.2299C17.5866 13.2899 17.8566 13.3399 18.13 13.3799C18.3574 13.4287 18.5607 13.5552 18.7049 13.7377C18.8491 13.9202 18.9252 14.1473 18.92 14.3799L18.94 17.4999Z" fill="#852984"/>
</svg>
